<?xml version="1.0"?>
<svg xmlns="http://www.w3.org/2000/svg" xmlns:xlink="http://www.w3.org/1999/xlink" xmlns:svgjs="http://svgjs.com/svgjs" version="1.1" width="512" height="512" x="0" y="0" viewBox="0 0 512 512" style="enable-background:new 0 0 512 512" xml:space="preserve" class=""><g><g xmlns="http://www.w3.org/2000/svg"><path d="m256 0c-57.891 0-105 48.109-105 106v30h105 105v-30c0-57.891-47.109-106-105-106z" fill="#896306" data-original="#fabe2c" style="" class=""/><path d="m361 106c0-57.891-47.109-106-105-106v136h105z" fill="#ff9100" data-original="#ff9100" style="" class=""/><path d="m361 121h-30c-21.899 0-42.299-9.6-56.4-25.501-5.262 6.063-11.702 10.856-18.6 14.905-11.193 6.568-23.95 10.596-37.5 10.596h-67.5c-16.569 0-30 13.431-30 30 0 16.567 13.431 30 30 30h15.621c.396 76.525 56.38 96.286 59.379 99.272v50.728h30 30v-50.713c3.029-2.994 59.306-22.676 59.474-99.287h15.526c16.569 0 30-13.433 30-30 0-16.569-13.431-30-30-30z" fill="#ffe1ba" data-original="#ffe1ba" style="" class=""/><path d="m286 280.287c3.029-2.994 59.306-22.676 59.474-99.287h15.526c16.569 0 30-13.433 30-30 0-16.569-13.431-30-30-30h-30c-21.899 0-42.299-9.6-56.4-25.501-5.262 6.063-11.702 10.856-18.6 14.905v220.596h30z" fill="#ffbfab" data-original="#ffbfab" style="" class=""/><path d="m346 301h-90-90c-41.422 0-75 33.578-75 75v15h165 165v-15c0-41.422-33.578-75-75-75z" fill="#76f899" data-original="#76e2f8" style="" class=""/><path d="m421 376c0-41.422-33.578-75-75-75h-90v90h165z" fill="#00c8c8" data-original="#00c8c8" style="" class=""/><path d="m256 361h-199.219l37.5 151h161.719 161.719l37.5-151z" fill="#596c76" data-original="#596c76" style="" class=""/><path d="m455.219 361h-199.219v151h161.719z" fill="#3b4a51" data-original="#3b4a51" style="" class=""/><path d="m256 421h-15v30h15 15v-30z" fill="#fff7cc" data-original="#fff7cc" style="" class=""/><path d="m256 421h15v30h-15z" fill="#ffe6b3" data-original="#ffe6b3" style="" class=""/></g></g></svg>
